<svg width="122" height="97" viewBox="0 0 122 97" fill="none" xmlns="http://www.w3.org/2000/svg">
<g clip-path="url(#clip0_244_3617)">
<path d="M60.7026 66.6875C62.2358 49.6936 76.5077 36.375 93.8837 36.375C95.5683 36.375 97.2151 36.5076 98.824 36.735L58.5827 1.32617C57.447 0.378906 55.9327 0 54.6078 0C53.2828 0 51.7685 0.189453 50.4436 1.51562L1.89282 43.8584C0.567845 45.1846 0 46.7002 0 48.4053C0 51.8154 2.64994 54.4867 6.05701 54.4867H12.114V67.6916C12.0951 67.8621 12.0951 68.0326 12.0951 68.2221V89.4408C12.0951 93.6277 15.4832 97.0189 19.6664 97.0189H22.6949C22.922 97.0189 23.1492 97 23.3763 96.981C23.6602 97 23.9441 97.0189 24.2281 97.0189H34.8089C38.992 97.0189 42.3802 93.6277 42.3802 89.4408V72.7689C42.3802 69.4156 45.0869 66.7064 48.4372 66.7064H60.6837L60.7026 66.6875Z" fill="black"/>
<path fill-rule="evenodd" clip-rule="evenodd" d="M93.9275 42.5742C78.8984 42.5742 66.7148 54.7577 66.7148 69.7869C66.7148 84.816 78.8984 96.9996 93.9275 96.9996C108.957 96.9996 121.14 84.816 121.14 69.7869C121.14 54.7577 108.957 42.5742 93.9275 42.5742ZM92.6861 54.5002L81.5132 65.6731C80.8275 66.3588 80.8275 67.4704 81.5132 68.156C82.1988 68.8416 83.3104 68.8416 83.996 68.156L92.1719 59.9802L92.1719 84.2711C92.1719 85.2407 92.9579 86.0267 93.9275 86.0267C94.8971 86.0267 95.6832 85.2407 95.6832 84.2711V59.9802L103.859 68.156C104.545 68.8416 105.656 68.8416 106.342 68.156C107.028 67.4704 107.028 66.3588 106.342 65.6731L95.169 54.5002C94.4833 53.8146 93.3717 53.8146 92.6861 54.5002Z" fill="black"/>
</g>
<defs>
<clipPath id="clip0_244_3617">
<rect width="121.14" height="97" fill="white"/>
</clipPath>
</defs>
</svg>
