<svg width="121" height="97" viewBox="0 0 121 97" fill="none" xmlns="http://www.w3.org/2000/svg">
<path d="M88.2985 54.4146C76.5449 54.4146 67.0058 63.9538 67.0058 75.7073C67.0058 87.4609 76.5449 97 88.2985 97C100.052 97 109.591 87.4609 109.591 75.7073C109.591 63.9538 100.052 54.4146 88.2985 54.4146ZM88.4262 90.6122V86.3324H88.2985C85.573 86.3324 82.8475 85.289 80.7608 83.2236C79.0277 81.4887 77.9458 79.2092 77.6976 76.7694C77.4493 74.3297 78.0499 71.879 79.3981 69.8305L81.7403 72.1727C80.2285 75.0047 80.6118 78.5818 82.9966 80.9666C84.4871 82.4571 86.446 83.1598 88.4049 83.1172V78.5605L94.4307 84.5864L88.4262 90.6122ZM97.1775 81.5841L94.8353 79.2419C96.3471 76.41 95.9638 72.8328 93.579 70.448C92.888 69.7509 92.0653 69.1981 91.1588 68.8216C90.2523 68.4451 89.28 68.2525 88.2985 68.2549H88.1707V72.8328L82.1449 66.8283L88.1707 60.8024V65.1036C90.9387 65.061 93.7281 66.0617 95.8361 68.191C99.4558 71.8108 99.903 77.4533 97.1775 81.5841Z" fill="black"/>
<path d="M49.6562 0H68.7802C71.3162 0 73.7483 1.00742 75.5415 2.80064C77.3347 4.59386 78.3422 7.02599 78.3422 9.56199V19.124H97.4661C100.002 19.124 102.434 20.1314 104.227 21.9246C106.021 23.7178 107.028 26.15 107.028 28.686V55.1249C101.778 50.4053 94.9641 47.7992 87.9042 47.81C82.87 47.814 77.9253 49.1417 73.5662 51.6598C69.2071 54.1779 65.5867 57.798 63.0682 62.1569C60.5497 66.5158 59.2217 71.4604 59.2172 76.4945C59.2128 81.5287 60.5322 86.4756 63.043 90.8389H20.9702C18.4342 90.8389 16.0021 89.8315 14.2088 88.0383C12.4156 86.245 11.4082 83.8129 11.4082 81.2769V28.686C11.4082 23.3791 15.6633 19.124 20.9702 19.124H40.0942V9.56199C40.0942 4.25509 44.3493 0 49.6562 0ZM68.7802 19.124V9.56199H49.6562V19.124H68.7802Z" fill="black"/>
</svg>
