<svg width="121" height="97" viewBox="0 0 121 97" fill="none" xmlns="http://www.w3.org/2000/svg">
<g clip-path="url(#clip0_243_3527)">
<path d="M60.6323 66.6875C62.1637 49.6936 76.4191 36.375 93.775 36.375C95.4577 36.375 97.1025 36.5076 98.7095 36.735L58.5148 1.32617C57.3805 0.378906 55.868 0 54.5445 0C53.2211 0 51.7086 0.189453 50.3852 1.51562L1.89062 43.8584C0.567187 45.1846 0 46.7002 0 48.4053C0 51.8154 2.64687 54.4867 6.05 54.4867H12.1V67.6916C12.0811 67.8621 12.0811 68.0326 12.0811 68.2221V89.4408C12.0811 93.6277 15.4653 97.0189 19.6436 97.0189H22.6686C22.8955 97.0189 23.1223 97 23.3492 96.981C23.6328 97 23.9164 97.0189 24.2 97.0189H34.7686C38.9469 97.0189 42.3311 93.6277 42.3311 89.4408V72.7689C42.3311 69.4156 45.0347 66.7064 48.3811 66.7064H60.6134L60.6323 66.6875Z" fill="black"/>
<path fill-rule="evenodd" clip-rule="evenodd" d="M93.8179 96.9996C108.83 96.9996 120.999 84.816 120.999 69.7869C120.999 54.7577 108.83 42.5742 93.8179 42.5742C78.8061 42.5742 66.6367 54.7577 66.6367 69.7869C66.6367 84.816 78.8061 96.9996 93.8179 96.9996ZM95.0579 85.0736L106.218 73.9006C106.903 73.215 106.903 72.1034 106.218 71.4178C105.533 70.7322 104.423 70.7322 103.738 71.4178L95.5715 79.5936V55.3027C95.5715 54.3331 94.7864 53.5471 93.8179 53.5471C92.8494 53.5471 92.0643 54.3331 92.0643 55.3027V79.5936L83.8979 71.4178C83.2131 70.7322 82.1027 70.7322 81.4179 71.4178C80.7331 72.1034 80.7331 73.215 81.4179 73.9006L92.5779 85.0736C93.2627 85.7592 94.373 85.7592 95.0579 85.0736Z" fill="black"/>
</g>
<defs>
<clipPath id="clip0_243_3527">
<rect width="121" height="97" fill="white"/>
</clipPath>
</defs>
</svg>
